<?xml version="1.0" standalone="no"?>
<!DOCTYPE svg PUBLIC "-//W3C//DTD SVG 20010904//EN"
 "http://www.w3.org/TR/2001/REC-SVG-20010904/DTD/svg10.dtd">
<svg version="1.0" xmlns="http://www.w3.org/2000/svg"
 width="200.000000pt" height="200.000000pt" viewBox="0 0 200.000000 200.000000"
 preserveAspectRatio="xMidYMid meet">
<metadata>
Created by potrace 1.14, written by Peter Selinger 2001-2017
</metadata>
<g transform="translate(0.000000,200.000000) scale(0.100000,-0.100000)"
fill="#000000" stroke="none">
<path d="M830 1608 c-151 -16 -309 -81 -444 -183 -89 -66 -141 -123 -210 -230
-109 -167 -141 -279 -141 -497 0 -86 2 -159 5 -161 3 -3 25 -1 50 4 67 14 277
19 345 8 33 -5 74 -11 90 -14 17 -3 120 -25 230 -50 337 -77 391 -87 525 -88
69 -1 150 2 180 6 30 4 68 9 83 11 51 8 191 57 249 89 55 30 57 32 66 85 9 54
9 183 -1 237 -3 17 -8 47 -11 68 -9 57 -68 208 -107 272 -160 266 -443 436
-744 448 -49 2 -124 0 -165 -5z"/>
</g>
</svg>
